HIERARCHY
ROOT root
{
	OFFSET	0	13.1	24.9
	CHANNELS 6  Xposition Yposition Zposition Xrotation Yrotation Zrotation
	JOINT spine_1
	{
		OFFSET	0	9.99999	0
		CHANNELS 3  Xrotation Yrotation Zrotation
		JOINT spine_2
		{
			OFFSET	0	112	-10
			CHANNELS 3  Xrotation Yrotation Zrotation
			JOINT spine_3
			{
				OFFSET	0	206.5	19.3
				CHANNELS 3  Xrotation Yrotation Zrotation
				JOINT spine_4
				{
					OFFSET	0	110.4	14.6
					CHANNELS 3  Xrotation Yrotation Zrotation
					JOINT neck_1
					{
						OFFSET	0	71.8	-50.3
						CHANNELS 3  Xrotation Yrotation Zrotation
						JOINT neck_2
						{
							OFFSET	0	86.2	-25.8
							CHANNELS 3  Xrotation Yrotation Zrotation
							JOINT head_ee
							{
								OFFSET	0	179.8	-8.7
								CHANNELS 3  Xrotation Yrotation Zrotation
								End Site
								{
									OFFSET	1	0	0
								}
							}
						}
					}
					JOINT left_clavicle
					{
						OFFSET	-43.2	22.4	-70.8
						CHANNELS 3  Xrotation Yrotation Zrotation
						JOINT left_shoulder
						{
							OFFSET	-93.9	-5.79999	48.7
							CHANNELS 3  Xrotation Yrotation Zrotation
							JOINT left_elbow
							{
								OFFSET	-291.4	-30.8	15.2
								CHANNELS 3  Xrotation Yrotation Zrotation
								JOINT left_lowarm_twist
								{
									OFFSET	-110.7	-3.89999	13.6
									CHANNELS 3  Xrotation Yrotation Zrotation
									JOINT left_hand
									{
										OFFSET	-110.7	-3.89999	13.6
										CHANNELS 3  Xrotation Yrotation Zrotation
										JOINT left_ee
										{
											OFFSET	-80.8	-5.10001	12.1
											CHANNELS 3  Xrotation Yrotation Zrotation
											End Site
											{
												OFFSET	1	0	0
											}
										}
									}
								}
							}
						}
					}
					JOINT right_clavicle
					{
						OFFSET	43.2	22.4	-70.8
						CHANNELS 3  Xrotation Yrotation Zrotation
						JOINT right_shoulder
						{
							OFFSET	93.9	-5.79999	48.7
							CHANNELS 3  Xrotation Yrotation Zrotation
							JOINT right_elbow
							{
								OFFSET	291.4	-30.8	15.2
								CHANNELS 3  Xrotation Yrotation Zrotation
								JOINT right_lowarm_twist
								{
									OFFSET	110.7	-3.89999	13.6
									CHANNELS 3  Xrotation Yrotation Zrotation
									JOINT right_hand
									{
										OFFSET	110.7	-3.89999	13.6
										CHANNELS 3  Xrotation Yrotation Zrotation
										JOINT right_ee
										{
											OFFSET	80.8	-5.10001	12.1
											CHANNELS 3  Xrotation Yrotation Zrotation
											End Site
											{
												OFFSET	1	0	0
											}
										}
									}
								}
							}
						}
					}
				}
			}
		}
	}
	JOINT left_hip
	{
		OFFSET	-82.8	-127.5	0.300001
		CHANNELS 3  Xrotation Yrotation Zrotation
		JOINT left_knee
		{
			OFFSET	-28.2	-396.7	2.2
			CHANNELS 3  Xrotation Yrotation Zrotation
			JOINT left_ankle
			{
				OFFSET	-11.7	-411.3	35.4
				CHANNELS 3  Xrotation Yrotation Zrotation
				JOINT left_toes
				{
					OFFSET	0	-60	-88.6
					CHANNELS 3  Xrotation Yrotation Zrotation
					JOINT left_foot_ee
					{
						OFFSET	-22.5	-16.5	-42.2
						CHANNELS 3  Xrotation Yrotation Zrotation
						End Site
						{
							OFFSET	1	0	0
						}
					}
				}
			}
		}
	}
	JOINT right_hip
	{
		OFFSET	82.8	-127.5	0.300001
		CHANNELS 3  Xrotation Yrotation Zrotation
		JOINT right_knee
		{
			OFFSET	28.2	-396.7	2.2
			CHANNELS 3  Xrotation Yrotation Zrotation
			JOINT right_ankle
			{
				OFFSET	11.7	-411.3	35.4
				CHANNELS 3  Xrotation Yrotation Zrotation
				JOINT right_toes
				{
					OFFSET	0	-60	-88.6
					CHANNELS 3  Xrotation Yrotation Zrotation
					JOINT right_foot_ee
					{
						OFFSET	22.5	-16.5	-42.2
						CHANNELS 3  Xrotation Yrotation Zrotation
						End Site
						{
							OFFSET	1	0	0
						}
					}
				}
			}
		}
	}
}
MOTION
Frames: 16
Frame Time: 0.02
2537.39 723.703 -1119.93 -1.77152 48.1894 7.3164 -1.55938 -0.0895811 -0.257148 -1.55935 -0.0730366 -0.262327 -1.55897 -0.00886949 -0.27216 -1.55907 -0.0517407 -0.267344 -0.339437 16.3644 5.6271 0.1051 24.7544 7.72669 -0.0 0.0 -0.0 5.49142 12.5277 10.6749 -24.8181 -20.3957 66.9373 0.650904 -17.8714 0.102345 3.86484 0.120049 -0.478967 -0.759318 2.82366 -3.84452 -0.0 0.0 -0.0 12.1189 22.069 -24.0449 -9.35948 32.8462 -46.7794 1.49618 36.5422 -0.494002 -40.2139 2.97394 -4.07598 -6.05478 -8.22112 38.9257 0.0 0.0 0.0 15.5009 -33.7451 -15.5072 -6.86037 0.221066 1.02903 -0.3833 23.6484 0.0581839 29.8989 -0.0 -0.0 -0.0 0.0 -0.0 -6.91587 12.1991 -1.8807 -17.2527 -0.318227 -2.61847 23.0576 7.51737 3.20205 32.9844 -0.0 -0.0 0.0 0.0 0.0 
2512.32 723.664 -1123.13 -1.62666 47.441 7.69767 -1.44008 -0.00737283 -0.653814 -1.43984 0.0342451 -0.652958 -1.44006 0.186533 -0.626685 -1.4406 0.0852209 -0.648278 0.402823 16.7026 5.65045 0.901128 25.1406 7.67172 -0.0 0.0 -0.0 5.71049 11.6745 11.0651 -24.1335 -20.2535 67.8923 0.614569 -16.9325 0.0914785 4.08836 0.125999 -0.506899 -0.579273 2.90414 -2.61589 -0.0 0.0 -0.0 12.4725 22.6638 -24.8062 -11.245 31.4539 -46.3773 1.31652 33.1095 -0.391356 -40.1812 2.97046 -4.07364 -6.03253 -8.45509 38.5549 0.0 0.0 0.0 17.4719 -34.3796 -13.9723 -12.5823 0.310263 1.90214 2.64115 25.5922 -0.40212 31.2864 -0.0 -0.0 -0.0 0.0 -0.0 -7.47563 14.1369 -2.00368 -17.9578 -0.314356 -2.72659 20.9844 4.67384 2.91234 33.3541 -0.0 -0.0 0.0 0.0 0.0 
2488.32 724.913 -1124.72 -0.584425 48.4277 7.10111 -1.67995 -0.116447 -0.851835 -1.67955 -0.0620089 -0.857518 -1.67823 0.144497 -0.847528 -1.67924 0.00883791 -0.859711 1.44757 17.3076 5.82251 2.0316 25.7823 7.75263 -0.0 0.0 -0.0 5.89466 12.4013 11.3655 -23.5563 -21.425 67.2207 0.654569 -17.9656 0.103473 4.0211 0.12422 -0.498492 -0.52971 3.50666 -2.02833 -0.0 0.0 -0.0 12.3106 22.978 -24.4043 -12.5568 31.1257 -46.4013 1.13591 29.3654 -0.297643 -40.1569 2.96786 -4.0719 -6.03375 -8.06981 38.8642 0.0 0.0 0.0 18.8802 -34.7257 -12.3764 -16.5886 0.320656 2.51661 2.38502 24.4481 -0.361176 31.634 -0.0 -0.0 -0.0 0.0 -0.0 -8.09603 15.9276 -1.86174 -18.722 -0.308658 -2.8437 22.1917 6.49991 3.08254 33.4214 -0.0 -0.0 0.0 0.0 0.0 
2456.03 729.04 -1126.18 0.29674 47.8951 5.37434 -1.90843 -0.0647735 -0.491962 -1.9083 -0.0333378 -0.495087 -1.90787 0.0877722 -0.488384 -1.90821 0.0095406 -0.496116 0.191585 17.6241 7.45438 0.724148 25.3709 9.71835 -0.0 0.0 -0.0 5.64994 15.8003 10.8614 -19.2702 -20.4888 66.6238 0.686619 -18.7848 0.113577 4.97246 0.148467 -0.6176 -0.961075 3.56962 -4.85476 -0.0 0.0 -0.0 11.5854 21.7617 -22.8495 -13.3289 30.8837 -48.2931 1.12095 29.042 -0.290346 -38.7673 2.82103 -3.97073 -5.94245 -5.01341 40.3933 0.0 0.0 0.0 20.6469 -38.6126 -7.81277 -22.6913 0.253973 3.45019 3.91201 28.8988 -0.605666 31.7162 -0.0 -0.0 -0.0 0.0 -0.0 -6.94098 21.8824 -1.70693 -22.7239 -0.253351 -3.45514 20.9232 -2.21307 2.85457 33.9031 -0.0 -0.0 0.0 0.0 0.0 
2434.51 728.76 -1140.97 2.44492 49.8535 4.37639 -2.14206 -0.12007 -0.755916 -2.14174 -0.0717271 -0.762024 -2.14043 0.118364 -0.756185 -2.14123 -0.00254272 -0.765387 -0.733013 16.2638 8.06186 -0.3121 22.6936 10.3629 -0.0 0.0 -0.0 5.83741 14.6449 11.2049 -20.3575 -23.1083 65.0046 0.594644 -16.4135 0.0857616 3.72395 0.116242 -0.461373 -0.710481 6.90067 -1.74961 -0.0 0.0 -0.0 12.2178 21.585 -24.313 -14.9036 29.2695 -48.3779 0.920574 24.5138 -0.199997 -39.5657 2.90509 -4.02929 -5.77982 -7.22174 37.3652 0.0 0.0 0.0 21.5323 -34.2702 -7.35571 -28.6263 0.0942271 4.34659 7.04642 23.4126 -1.04872 30.0967 -0.0 -0.0 -0.0 0.0 -0.0 -5.74804 22.1279 -4.86608 -27.5842 -0.128991 -4.19043 20.9774 -6.25671 2.85139 35.452 -0.0 -0.0 0.0 0.0 0.0 
2402.46 734.081 -1146.97 5.66896 50.9881 0.670009 -2.6841 -0.00783264 -0.350505 -2.68404 0.0144866 -0.350293 -2.68405 0.103586 -0.33494 -2.68421 0.0493887 -0.347096 1.68685 17.4134 6.49217 2.2721 25.3351 8.46326 -0.0 0.0 -0.0 7.15117 12.3596 13.5324 -23.0595 -23.2607 63.0578 0.420011 -11.7535 0.043232 3.58233 0.112372 -0.443697 0.207421 2.26459 2.32793 -0.0 0.0 -0.0 11.8998 21.3172 -23.6046 -17.1565 28.5605 -49.9474 0.859522 23.0632 -0.175369 -38.7459 2.81878 -3.96914 -6.0897 -8.29083 39.1693 0.0 0.0 0.0 17.3618 -33.6394 -4.94329 -26.3518 0.166423 4.00502 10.9806 25.3434 -1.63097 31.5673 -0.0 -0.0 -0.0 0.0 -0.0 -2.47503 29.719 -7.3177 -36.5377 0.261315 -5.50748 24.7805 -7.03593 3.3053 36.0726 -0.0 -0.0 0.0 0.0 0.0 
2364.0 734.569 -1157.94 8.41974 49.4194 -3.07124 -2.78398 0.0508893 -0.256034 -2.78394 0.0670782 -0.252277 -2.78421 0.129759 -0.226508 -2.78427 0.0923581 -0.244158 0.0846925 17.9452 7.96472 0.632903 25.5619 10.3062 -0.0 0.0 -0.0 6.50817 13.5465 12.3702 -14.6641 -26.2055 58.5326 0.5649 -15.6336 0.0775512 3.3532 0.106017 -0.415117 -0.514876 5.63561 -1.01708 -0.0 0.0 -0.0 11.8149 20.6289 -23.4637 -18.4888 28.4106 -51.92 0.684876 18.7404 -0.113016 -37.9272 2.73347 -3.90785 -6.4457 -10.3983 40.5197 0.0 0.0 0.0 15.6087 -39.6788 0.542493 -29.5244 0.0619892 4.48065 14.9569 29.6579 -2.25238 34.4375 -0.0 -0.0 -0.0 0.0 -0.0 -2.06861 36.1954 -7.28676 -42.0518 0.602433 -6.28309 31.1246 -7.32104 4.00814 38.0445 -0.0 -0.0 0.0 0.0 0.0 
2337.71 744.155 -1168.32 9.8964 48.7263 -4.40629 -3.22776 0.267772 -0.186314 -3.22778 0.279085 -0.168897 -3.22868 0.313857 -0.0889298 -3.22857 0.295873 -0.137382 -1.61898 18.5159 10.1082 -1.0804 25.4173 12.853 -0.0 0.0 -0.0 6.81342 15.7376 12.7647 -15.0086 -29.5248 55.805 0.519026 -14.4192 0.065657 2.54495 0.0826903 -0.314511 -0.554749 3.70833 -2.10693 -0.0 0.0 -0.0 12.1698 20.326 -24.3005 -19.6256 27.8987 -52.6768 0.576667 15.9429 -0.0807529 -37.9692 2.73782 -3.91102 -6.20495 -9.39994 39.2726 0.0 0.0 0.0 13.9249 -31.4237 0.285913 -29.8214 0.0508649 4.52488 12.2473 28.5156 -1.84678 35.1582 -0.0 -0.0 -0.0 0.0 -0.0 1.21932 36.0171 -10.4172 -46.3125 0.916392 -6.85832 35.6298 -8.61555 4.46573 38.1941 -0.0 -0.0 0.0 0.0 0.0 
2317.2 744.441 -1173.2 10.6082 48.568 -5.79096 -3.39975 0.300363 -0.00221509 -3.3998 0.299895 0.0169024 -3.39977 0.284416 0.0965917 -3.39966 0.296102 0.0504608 -2.44803 18.2999 10.1697 -1.9507 25.2618 13.0053 -0.0 0.0 -0.0 6.87436 18.4606 12.6804 -13.2002 -32.7995 53.4264 0.559309 -15.4864 0.0760515 1.77707 0.0592147 -0.219238 -0.641823 3.2659 -2.87363 -0.0 0.0 -0.0 12.2454 20.2487 -24.4803 -20.1926 27.8214 -53.2571 0.487719 13.5827 -0.0580824 -37.1864 2.65702 -3.85135 -6.12871 -9.57287 38.4878 0.0 0.0 0.0 14.5983 -30.9385 2.40158 -32.4508 -0.0575811 4.91377 13.074 28.8556 -1.97056 35.7028 -0.0 -0.0 -0.0 0.0 -0.0 5.78176 39.0627 -15.1386 -49.8817 1.21188 -7.32146 38.6024 -11.1735 4.76092 39.2428 -0.0 -0.0 0.0 0.0 0.0 
2300.88 747.042 -1176.91 10.5103 50.0886 -6.62738 -3.37942 0.0835729 0.223944 -3.3794 0.0691534 0.228808 -3.37907 0.0054433 0.238968 -3.37915 0.0431154 0.235109 -3.10789 18.1131 9.58292 -2.66334 25.6086 12.4749 -0.0 0.0 -0.0 6.92027 19.4302 12.6786 -11.4732 -34.6107 51.0118 0.706926 -19.2998 0.120202 1.36878 0.0462126 -0.168708 -0.767315 2.97918 -3.82968 -0.0 0.0 -0.0 12.0158 19.1014 -24.031 -20.2668 27.9248 -54.6601 0.41632 11.6531 -0.0424834 -37.1661 2.65495 -3.84979 -6.17933 -10.1211 38.4747 0.0 0.0 0.0 13.9633 -29.6931 3.60645 -31.2602 -0.0062636 4.73829 12.3893 28.9363 -1.8726 36.2696 -0.0 -0.0 -0.0 0.0 -0.0 9.66298 43.5798 -19.6881 -49.7226 1.1981 -7.3012 39.6986 -13.8269 4.88903 39.5357 -0.0 -0.0 0.0 0.0 0.0 
2285.03 749.749 -1178.05 10.9768 49.438 -7.03653 -3.45516 0.0642015 0.493105 -3.45503 0.0326942 0.496191 -3.45455 -0.101839 0.486727 -3.45488 -0.0236928 0.496702 -4.12732 17.805 10.4297 -3.70978 24.7175 13.4484 -0.0 0.0 -0.0 6.77818 19.3203 12.467 -9.45746 -36.8393 48.9271 0.762735 -20.6984 0.139291 1.35339 0.0457155 -0.166805 -0.815027 2.75941 -4.24239 -0.0 0.0 -0.0 12.3099 20.022 -24.6452 -21.4942 28.601 -54.7844 0.371747 10.4345 -0.0339445 -37.3611 2.67499 -3.86476 -6.03088 -9.84668 37.4542 0.0 0.0 0.0 13.6018 -28.9286 4.38832 -32.9851 -0.081796 4.99217 11.9066 28.6056 -1.79847 35.9109 -0.0 -0.0 -0.0 0.0 -0.0 12.4779 45.6614 -21.5133 -49.4924 1.17825 -7.27183 38.9563 -12.8194 4.80961 39.8882 -0.0 -0.0 0.0 0.0 0.0 
2275.2 747.79 -1177.09 9.72945 50.2182 -6.34713 -3.18703 -0.152605 0.47779 -3.18692 -0.182698 0.467111 -3.18836 -0.299635 0.402232 -3.18851 -0.232351 0.444505 -5.00571 16.9999 10.1638 -4.65587 23.7137 13.1881 -0.0 0.0 -0.0 7.11936 19.9144 12.9461 -7.46145 -38.2269 46.3735 0.905553 -24.16 0.193807 1.49535 0.0502821 -0.184363 -0.939896 3.22268 -4.86757 -0.0 0.0 -0.0 12.0452 18.6445 -24.1273 -22.1077 28.7319 -54.9061 0.396661 11.1169 -0.0386027 -37.3601 2.67489 -3.86469 -6.08621 -10.4369 37.4457 0.0 0.0 0.0 13.8361 -28.999 5.1464 -31.935 -0.0348993 4.83787 13.2203 28.63 -1.98862 37.1497 -0.0 -0.0 -0.0 0.0 -0.0 15.0149 45.1146 -21.6351 -50.7823 1.29098 -7.43538 38.7779 -13.581 4.80233 39.9896 -0.0 -0.0 0.0 0.0 0.0 
2252.94 752.176 -1178.64 11.6494 49.2449 -8.40778 -3.65361 -0.120321 0.584938 -3.65343 -0.157298 0.576097 -3.65488 -0.308114 0.511564 -3.65518 -0.223457 0.553803 -5.50518 16.2242 10.4892 -5.1714 22.1796 13.4551 -0.0 0.0 -0.0 7.63783 19.0556 13.8309 -4.80088 -38.4541 45.6893 0.873273 -23.3928 0.180792 1.01602 0.0346887 -0.125125 -1.08274 4.10921 -5.42101 -0.0 0.0 -0.0 11.9097 19.8823 -23.7353 -21.4762 27.5772 -55.7199 0.300419 8.46474 -0.0222321 -39.1366 2.85981 -3.99796 -6.22475 -9.50331 39.3582 0.0 0.0 0.0 10.6301 -26.2846 6.12612 -30.4228 0.0276402 4.61425 15.0436 28.5021 -2.24684 37.4014 -0.0 -0.0 -0.0 0.0 -0.0 20.5148 50.0303 -20.3428 -44.0994 0.747951 -6.5624 41.272 -16.3531 5.06784 38.9233 -0.0 -0.0 0.0 0.0 0.0 
2242.78 752.399 -1181.98 7.46609 48.5077 -5.27874 -2.87774 0.100834 0.685115 -2.87748 0.0570348 0.690142 -2.87646 -0.123644 0.681368 -2.87711 -0.0144853 0.692343 -4.51363 18.2094 7.98842 -4.18831 27.4694 11.1149 -0.0 0.0 -0.0 7.43236 20.532 13.3692 -1.85982 -36.4375 44.9989 1.19684 -30.6617 0.328123 1.35977 0.0459217 -0.167594 -0.999411 1.00529 -6.2445 -0.0 0.0 -0.0 11.4342 17.4629 -22.7989 -22.6047 28.4198 -57.3618 0.375793 10.5455 -0.034681 -38.7371 2.81787 -3.96849 -6.21301 -10.8683 38.1511 0.0 0.0 0.0 13.0908 -24.9753 6.08125 -31.012 0.00397464 4.70157 12.5341 28.0947 -1.88307 36.4192 -0.0 -0.0 -0.0 0.0 -0.0 27.3645 54.5824 -23.868 -43.3286 0.691997 -6.45786 40.4895 -17.8643 5.0269 40.1306 -0.0 -0.0 0.0 0.0 0.0 
2227.64 752.468 -1179.27 6.54224 48.0079 -3.93717 -3.06526 -0.0982989 0.499554 -3.06513 -0.129887 0.492287 -3.06616 -0.254413 0.441012 -3.06638 -0.181571 0.475656 -4.4252 16.777 7.09646 -4.15478 25.464 9.97196 -0.0 0.0 -0.0 8.37935 19.8881 14.904 -1.42915 -37.3871 42.1479 1.24724 -31.7084 0.354221 1.09645 0.0373401 -0.135057 -1.35279 0.905788 -8.66329 -0.0 0.0 -0.0 11.0916 18.4733 -21.9633 -22.7767 28.045 -56.8488 0.439585 12.285 -0.0473081 -38.8462 2.8293 -3.97657 -6.20217 -11.291 37.7166 0.0 0.0 0.0 12.5259 -21.6471 5.29268 -30.6241 0.0196545 4.64411 14.1962 27.5891 -2.11397 37.6917 -0.0 -0.0 -0.0 0.0 -0.0 26.5446 53.5995 -22.3124 -41.9009 0.592109 -6.26231 39.8741 -17.0987 4.95643 40.0393 -0.0 -0.0 0.0 0.0 0.0 
2213.4 754.951 -1177.07 3.995 47.0573 -2.37207 -2.87882 -0.0773344 0.594248 -2.87863 -0.114991 0.588123 -2.87966 -0.263415 0.538261 -2.88002 -0.175103 0.573106 -4.61505 17.5992 7.90158 -4.31458 26.4311 10.9498 -0.0 0.0 -0.0 7.98468 18.5298 14.4331 -0.197577 -38.3127 40.8156 1.24248 -31.6105 0.351722 1.1903 0.0404158 -0.146649 -1.31317 0.300064 -8.66913 -0.0 0.0 -0.0 11.5258 18.5841 -22.9431 -23.4922 28.2822 -55.7051 0.345614 9.71546 -0.0293728 -39.2321 2.86987 -4.00497 -6.17869 -11.1437 37.6424 0.0 0.0 0.0 14.0158 -22.2104 6.71779 -29.5885 0.0596072 4.4902 14.3899 28.3818 -2.1524 37.4176 -0.0 -0.0 -0.0 0.0 -0.0 25.2525 53.2524 -18.9877 -40.9952 0.531293 -6.13703 38.8035 -16.9443 4.85502 39.9436 -0.0 -0.0 0.0 0.0 0.0 
